<svg xmlns="http://www.w3.org/2000/svg" version="1.1" xmlns:xlink="http://www.w3.org/1999/xlink" xmlns:svgjs="http://svgjs.dev/svgjs" width="1500" height="1500" viewBox="0 0 1500 1500"><rect width="1500" height="1500" fill="#000000"></rect><g transform="matrix(0.6666666666666666,0,0,0.6666666666666666,250.00000781249992,187.66666666666674)"><svg viewBox="0 0 320 360" data-background-color="#000000" preserveAspectRatio="xMidYMid meet" height="1687" width="1500" xmlns="http://www.w3.org/2000/svg" xmlns:xlink="http://www.w3.org/1999/xlink"><g id="tight-bounds" transform="matrix(1,0,0,1,0.0000025000000505315256,0)"><svg viewBox="0 0 320 360" height="360" width="320"><g><svg></svg></g><g><svg viewBox="0 0 320 360" height="360" width="320"><g><path transform="translate(-19.44751,3.1739) scale(3.53591,3.53591)" d="M67.6 10.7c0.2 0 1.8 0.8 2.7 1.1-0.3 0.1-1-0.2-1.8-0.5 0.2 0 0.6 0.1 1 0.3-0.2-0.2-1.7-0.7-1.9-0.9M52.7 7.6c0.3-0.1 3.8 0.4 5.4 0.5 0.1-0.1-0.2-0.1-0.6-0.2 0.5-0.1 1.5 0.2 2.2 0.3-2.1 0.1-4.4-0.5-6.4-0.3-0.7 0-0.2-0.2-0.6-0.3M49.8 7.6c1.8 0 3.2 0 0.6 0.2-0.3-0.1-0.7-0.1-0.6-0.2M78.1 15.9c0.2 0 1 0.9 1.4 1.2-0.1 0.1-0.9-0.7-1.3-1 0.1 0.1 0 0-0.1-0.2M76.1 14.6c-0.8-0.7-1.1-0.7-1.2-1.1 0.7 0.4 1.2 0.8 1.2 1.1M63.2 8.3c0.1-0.1 0.3 0.1 0.8 0.2-0.6-0.1-0.5 0-0.3 0.2-0.7-0.1-0.9-0.2-0.7-0.4 0.4 0.2 0.5 0.1 0.2 0M34.8 9.5c0-0.1 0.4-0.3 0.7-0.4-0.3 0.2-0.2 0.3 0.3 0.1 0 0.1-0.6 0.3-1 0.5 0.2-0.1 0.4-0.4 0-0.2M65.2 7.3c-0.3 0.1-1.4-0.5-2.5-0.7-0.6-0.2 2.4 0.5 2.5 0.7M6.2 56.7c0.6 2.5 0.2 2.4 0 0M6.3 41.7c0.1-0.4 0.2-1.5 0.3-1.4-0.3 2.4-0.8 3.5-0.9 5.3 0.3-1.6-0.1 0.9-0.2 1.5 0.1 0.8 0.1-0.5 0.3-0.3 0.2 0.3-0.4 4.5-0.2 2.2-0.2 2.1 0 4.4 0.4 5-0.5 3.2 2 10.4 2.5 11.9 0.1 0.1 0-0.5 0.2-0.1 0.2 1.3 1.1 2.2 1.4 3.6 0.3 0.4 1.5 2.6 1.7 3.1 0.4 0.8 0.6 0.7 1 1.5 1.2 2.3 3.1 4.5 4.9 6.6 5.8 6.8 14.7 12.4 24.6 14.4 9.9 2.1 20.3 0.6 28.4-3.3 0.5-0.3 0.4-0.4 1-0.6 2.8-0.9 6.2-3.8 8.1-4.9 0.9-1 3.3-2.7 3.6-3.7 1.7-1.4 3.4-3.7 4.3-5.2 0.5-0.8 0.9-0.8 1.1-1.3-0.1 0 1.6-2.1 2.1-3.3-0.2 0-0.5 0.6-0.5 0 3.6-6.9 5.6-16.2 4.5-22.6 0.2 7.9-1.8 16.7-5.6 22.3-1.7 3.6-5.2 7.5-8.4 10.3-0.5 0.5-1 1.1-1.6 1.5-1.9 1.6-4 2.9-6.2 4.1-5.2 2.9-11 5.4-17.8 5.5 11.7-1 22.2-6.9 28-14.1-4.4 4.3-6.3 6-11.2 8.5-0.4 0.7-3.7 2.1-5.9 2.7 1.3-0.6 4-1.6 4.9-2.4-7.3 3.5-15.4 5.5-23 4.4 2.9 0 7 0.1 10.9-0.6 0.6-0.2 0.9-0.4 1.6-0.5 7.6-1.7 14.9-5.4 20.1-10.6-3 2.7-7.5 5.9-10.4 6.9 2.7-1.5 7.6-4.4 9.2-6.6-3.2 3.2-9.2 6.4-13 7.8-0.6 0.1 0.4-0.4-0.6 0-1.2 0.3-0.7 0.3-1 0.5-4.6 1.3-9.9 2.4-14.3 2-0.8-0.1-1.1-0.3-1.8-0.3-0.8-0.1-1.5-0.1-2.4-0.1-3.5-0.4-7.3-1.8-10.1-3-1.5-0.7-3-1.2-4.5-2.1-1.2-0.7-2.2-1.5-3.2-2.3-3.8-2.8-7-5.6-10-9.6-5.4-7.5-8.2-16.9-7.8-26.2 0.4-9.3 4.1-18.4 10-25.1-0.3 0.3 0.4-0.7 1-1.3 0 0.2-0.1 0.5 0.6-0.2 0.6-0.7-0.2-0.2 0.1-0.6 6.2-6.8 17-12.3 28.1-12.5 0.4-0.3 1.1-0.7 1.9-0.5 0 0.1-0.5 0.1-0.5 0.1 1.1-0.1 2.1-0.1 2.6 0.1 0.1-0.1-0.4-0.2 0-0.2 0.7 0.2 0.9 0 1.3 0.2-0.3 0-0.6 0-0.8 0.1 2.5 0 4.1 0.6 6.6 0.8-1.3-0.3-1.6-0.3-2.6-0.6 1.1 0.2 1.6 0.4 2.1 0.3-0.2 0-0.1-0.3 0.1-0.2 2 0.5 2.2 0.7 4.3 1.4 0.2-0.2-0.9-0.3-1.2-0.6 2 0.7 3.8 1.2 5 2-0.4-0.3-1.6-0.7-2.5-1.1-0.1 0.1 0.3 0.2 0.4 0.4-1-0.5-2.4-1-3.8-1.2 1.2 0.3 2 0.7 2.5 0.9-1.1-0.2-2.5-0.9-4.1-1.2 2.6 0.8 7.5 2.6 10.5 4.2-1.1-0.7-2.4-1.2-3.1-1.6 0.6 0.1 1.3 0.5 1.3 0.3 0.7 0.3 1.6 1 2.1 1.1-0.9-0.6-2.7-1.5-3.3-1.8 7.5 3.4 14.2 9.1 18.5 16.4 0.4 0.7 1 2.3 1.5 2.5-0.1-0.5-0.5-0.8-0.9-1.6 0.2 0 0.2-0.3 0-0.6-0.4-0.5 0 0.4-0.4-0.1-1.8-3.3-4-6.2-7.4-9.4 1.9 1.8 0.5 0.5 0.1-0.1 2.6 2.3 5.6 6.2 6.9 8.2-0.2-0.3-0.3-0.5-0.2-0.5 2.4 4.1 3.9 7.8 5.4 13.1 0.1 0.1 0-0.4 0.2-0.1 1 4.2 1.3 7.7 1.2 10.9 0.8-5.4-1-13.8-4.2-20.4-0.4-0.8-0.4-0.2-0.8-1.1 0-0.3-0.3-0.9-0.5-1.3-4-6.6-8.9-11.3-14.7-15 0.4 0.2 1.2 0.8 1.2 0.7-10.8-7.1-23.3-8.1-33.6-5.9-0.7 0.3-1 0.6-1.8 1 1.5-0.5 2.4-0.6 3.8-0.9 0.3-0.3-1.3 0.1-0.6-0.2 0.1 0.1 1.4-0.2 1.7-0.1 0 0.1-0.4 0.2-0.5 0.3 3.3-0.7 6.7-0.8 9.6-0.6-1.7 0.1-4.8-0.2-5.8 0.3 1-0.1 2.4-0.2 3.3-0.1-1.2 0-3.4 0.1-4.4 0.2-0.1-0.1 1.6-0.3 0.5-0.3-0.5 0.1-1.3 0.1-1.6 0.4-8.6 0.8-17 5.3-22.9 10.6-1.2 1-2.6 2.1-3.5 3.2-2.2 2.5-3.6 5-5.2 7.2 1-2.1 3.2-5.3 5.8-8 2.6-2.7 5.4-5 6.9-6.2 0 0.4 2.4-1.5 3.3-2.1-0.6 0.5 0.4-0.2 0.6-0.1 3.2-1.9 5.8-2.6 8.7-3.7-0.7 0.2-1.3 0.4-1.4 0.3 0.7-0.2 1.1-0.4 1-0.5-2.8 0.8-7.2 2.7-10.7 4.8 6.3-4.3 14.3-6.9 22.2-7 7.9-0.2 15.6 1.8 21.7 5 4.1 1.8 8 5.1 11.1 8.3 0.9 0.8 0.2-0.2 1.5 1.2-0.4-0.2-0.7-0.4-0.2 0.2 0.8 0.9-0.2-0.7 1.1 0.9-0.1 0-0.5-0.5-0.5-0.3 3.5 3.1 6.2 8.7 7.8 12.4-0.4-1.5-1.4-3.6-2.2-5.1 2.4 4.4 3.2 7 4.2 10.9 0.4 0.3-0.2-1.4 0.2-0.6 0.1 0.6 0.2 2.5 0.6 2.8-0.3-1.9-0.8-4.2-1.2-4.6 0.3 0.2-0.5-2.3-1-2.9-0.2-1.6-1.6-4.4-2.8-6.5-4.3-8.4-12-15.3-20.6-19.1 0-0.2-0.5-0.4-0.7-0.6-8.5-3.6-18.7-4.6-28.5-2.3-9.9 2.4-19.2 8.1-25.8 16.3 0.3-1 2.8-2.9 2.9-3.7-2.9 3.1-6 7.2-8.1 11.6-2.2 4.4-3.4 8.9-3.9 12.2" fill="#ffffff" fill-rule="nonzero" stroke="none" stroke-width="1" stroke-linecap="butt" stroke-linejoin="miter" stroke-miterlimit="10" stroke-dasharray="" stroke-dashoffset="0" font-family="none" font-weight="none" font-size="none" text-anchor="none" style="mix-blend-mode: normal" data-fill-palette-color="tertiary"></path></g><g transform="matrix(1,0,0,1,91.7831711392726,90)"><svg viewBox="0 0 136.4336577214548 180" height="180" width="136.4336577214548"><g><svg viewBox="0 0 225.11999999999998 297.0058904579804" height="180" width="136.4336577214548"><g><rect width="225.11999999999998" height="10.368552824924622" x="0" y="93.79525288665549" fill="#ffffff" opacity="1" stroke-width="0" stroke="transparent" fill-opacity="1" class="rect-qz-0" data-fill-palette-color="primary" rx="1%" id="qz-0" data-palette-color="#ffffff"></rect></g><g transform="matrix(1,0,0,1,0.5599999999999881,131.30661415379117)"><svg viewBox="0 0 224 165.69927630418925" height="165.69927630418925" width="224"><g id="textblocktransform"><svg viewBox="0 0 224 165.69927630418925" height="165.69927630418925" width="224" id="textblock"><g><svg viewBox="0 0 224 114.97487437185929" height="114.97487437185929" width="224"><g transform="matrix(1,0,0,1,0,0)"><svg width="224" viewBox="1.7 -35.35 69.64999999999999 35.75" height="114.97487437185929" data-palette-color="#ffffff"><g class="wordmark-text-0" data-fill-palette-color="primary" id="text-0"><path d="M33.9-30.4L30.55-26.35Q28.55-28.25 25.88-29.33 23.2-30.4 20.45-30.4L20.45-30.4Q17.75-30.4 15.45-29.4 13.15-28.4 11.4-26.65 9.65-24.9 8.68-22.58 7.7-20.25 7.7-17.55L7.7-17.55Q7.7-14.85 8.68-12.5 9.65-10.15 11.4-8.38 13.15-6.6 15.48-5.6 17.8-4.6 20.5-4.6L20.5-4.6Q22.95-4.6 25.58-5.6 28.2-6.6 30.3-8.3L30.3-8.3 33.7-4.2Q31.95-2.85 29.68-1.8 27.4-0.75 24.95-0.18 22.5 0.4 20.1 0.4L20.1 0.4Q16.2 0.4 12.88-0.98 9.55-2.35 7.03-4.8 4.5-7.25 3.1-10.53 1.7-13.8 1.7-17.55L1.7-17.55Q1.7-21.3 3.13-24.53 4.55-27.75 7.1-30.2 9.65-32.65 13.08-34 16.5-35.35 20.45-35.35L20.45-35.35Q22.95-35.35 25.38-34.75 27.8-34.15 30-33.05 32.2-31.95 33.9-30.4L33.9-30.4ZM28.55-4.2L28.55-17.1 33.7-17.1 33.7-4.2 28.55-4.2ZM71.35-30.4L68-26.35Q66-28.25 63.32-29.33 60.65-30.4 57.9-30.4L57.9-30.4Q55.2-30.4 52.9-29.4 50.6-28.4 48.85-26.65 47.1-24.9 46.12-22.58 45.15-20.25 45.15-17.55L45.15-17.55Q45.15-14.85 46.12-12.5 47.1-10.15 48.85-8.38 50.6-6.6 52.92-5.6 55.25-4.6 57.95-4.6L57.95-4.6Q60.4-4.6 63.02-5.6 65.65-6.6 67.75-8.3L67.75-8.3 71.15-4.2Q69.4-2.85 67.12-1.8 64.85-0.75 62.4-0.18 59.95 0.4 57.55 0.4L57.55 0.4Q53.65 0.4 50.32-0.98 47-2.35 44.47-4.8 41.95-7.25 40.55-10.53 39.15-13.8 39.15-17.55L39.15-17.55Q39.15-21.3 40.57-24.53 42-27.75 44.55-30.2 47.1-32.65 50.52-34 53.95-35.35 57.9-35.35L57.9-35.35Q60.4-35.35 62.82-34.75 65.25-34.15 67.45-33.05 69.65-31.95 71.35-30.4L71.35-30.4ZM66-4.2L66-17.1 71.15-17.1 71.15-4.2 66-4.2Z" fill="#ffffff" data-fill-palette-color="primary"></path></g></svg></g></svg></g><g transform="matrix(1,0,0,1,42.784000000000006,142.11768281407035)"><svg viewBox="0 0 138.432 23.581593490118927" height="23.581593490118927" width="138.432"><g transform="matrix(1,0,0,1,0,0)"><svg width="138.432" viewBox="4.49 -36.01 273 46.51" height="23.581593490118927" data-palette-color="#ffffff"><path d="M4.49-5L4.49-30Q4.49-31.03 4.88-31.95 5.27-32.86 5.96-33.53 6.64-34.2 7.56-34.61 8.47-35.01 9.5-35.01L9.5-35.01 28.49-35.01Q29.52-35.01 30.43-34.61 31.35-34.2 32.03-33.53 32.71-32.86 33.11-31.95 33.5-31.03 33.5-30L33.5-30 33.5-25.49 28.49-25.49 28.49-30 9.5-30 9.5-5 28.49-5 28.49-13.5 18.99-13.5 18.99-18.51 33.5-18.51 33.5-5Q33.5-3.98 33.11-3.06 32.71-2.15 32.03-1.46 31.35-0.78 30.43-0.39 29.52 0 28.49 0L28.49 0 9.5 0Q8.47 0 7.56-0.39 6.64-0.78 5.96-1.46 5.27-2.15 4.88-3.06 4.49-3.98 4.49-5L4.49-5ZM48.53 10.5L43.75 10.5 49.19-2.34 38.99-26 44.04-26 51.63-8.11 59.23-26 64.28-26 48.53 10.5ZM100.87-21.19L89.89-21.19 89.89 0 85.08 0 85.08-21.19 74.07-21.19 74.07 0 69.28 0 69.28-26 74.07-26 74.07-21.41Q74.12-22.36 74.51-23.21 74.9-24.05 75.54-24.67 76.19-25.29 77.05-25.65 77.9-26 78.88-26L78.88-26 85.08-26Q86.03-26 86.88-25.65 87.74-25.29 88.4-24.67 89.06-24.05 89.46-23.21 89.86-22.36 89.89-21.41L89.89-21.41Q89.94-22.36 90.31-23.21 90.69-24.05 91.34-24.67 91.99-25.29 92.84-25.65 93.7-26 94.67-26L94.67-26 100.87-26Q101.87-26 102.75-25.62 103.63-25.24 104.28-24.6 104.93-23.95 105.31-23.07 105.68-22.19 105.68-21.19L105.68-21.19 105.68 0 100.87 0 100.87-21.19ZM114.18-5L114.18-30Q114.18-31.03 114.57-31.95 114.96-32.86 115.64-33.53 116.33-34.2 117.24-34.61 118.16-35.01 119.18-35.01L119.18-35.01 138.18-35.01Q139.2-35.01 140.12-34.61 141.03-34.2 141.72-33.53 142.4-32.86 142.79-31.95 143.18-31.03 143.18-30L143.18-30 143.18-25.49 138.18-25.49 138.18-30 119.18-30 119.18-5 138.18-5 138.18-13.5 128.68-13.5 128.68-18.51 143.18-18.51 143.18-5Q143.18-3.98 142.79-3.06 142.4-2.15 141.72-1.46 141.03-0.78 140.12-0.39 139.2 0 138.18 0L138.18 0 119.18 0Q118.16 0 117.24-0.39 116.33-0.78 115.64-1.46 114.96-2.15 114.57-3.06 114.18-3.98 114.18-5L114.18-5ZM173.67-21.19L173.67-10.55 156.46-10.55 156.46-4.81 173.67-4.81 173.67 0 156.46 0Q155.48 0 154.6-0.38 153.73-0.76 153.08-1.4 152.43-2.05 152.05-2.93 151.67-3.81 151.67-4.81L151.67-4.81 151.67-21.19Q151.67-22.19 152.05-23.07 152.43-23.95 153.08-24.6 153.73-25.24 154.6-25.62 155.48-26 156.46-26L156.46-26 168.86-26Q169.86-26 170.74-25.62 171.62-25.24 172.27-24.6 172.91-23.95 173.29-23.07 173.67-22.19 173.67-21.19L173.67-21.19ZM168.86-21.19L156.46-21.19 156.46-15.36 168.86-15.36 168.86-21.19ZM204.68-21.19L204.68 0 199.87 0 199.87-21.19 186.46-21.19 186.46 0 181.68 0 181.68-26 186.46-26 186.46-21.41Q186.51-22.36 186.9-23.21 187.29-24.05 187.94-24.67 188.59-25.29 189.44-25.65 190.3-26 191.27-26L191.27-26 199.87-26Q200.87-26 201.75-25.62 202.62-25.24 203.27-24.6 203.92-23.95 204.3-23.07 204.68-22.19 204.68-21.19L204.68-21.19ZM212.92-26L217.73-26 217.73 0 212.92 0 212.92-26ZM212.68-31.01L212.68-36.01 217.98-36.01 217.98-31.01 212.68-31.01ZM225.98-4.81L225.98-26 230.77-26 230.77-4.81 244.17-4.81 244.17-26 248.98-26 248.98 0 244.17 0 244.17-4.39Q244.1-3.49 243.68-2.69 243.27-1.88 242.62-1.28 241.97-0.68 241.14-0.34 240.31 0 239.39 0L239.39 0 230.77 0Q229.79 0 228.91-0.38 228.03-0.76 227.39-1.4 226.74-2.05 226.36-2.93 225.98-3.81 225.98-4.81L225.98-4.81ZM256.47-4.81L272.69-4.81 272.69-10.84 261.28-10.84Q260.28-10.84 259.4-11.22 258.52-11.6 257.88-12.24 257.23-12.89 256.85-13.77 256.47-14.65 256.47-15.65L256.47-15.65 256.47-21.19Q256.47-22.19 256.85-23.07 257.23-23.95 257.88-24.6 258.52-25.24 259.4-25.62 260.28-26 261.28-26L261.28-26 276.49-26 276.49-21.19 261.28-21.19 261.28-15.65 272.69-15.65Q273.69-15.65 274.55-15.27 275.42-14.89 276.08-14.25 276.74-13.6 277.12-12.72 277.49-11.84 277.49-10.84L277.49-10.84 277.49-4.81Q277.49-3.81 277.12-2.93 276.74-2.05 276.08-1.4 275.42-0.76 274.55-0.38 273.69 0 272.69 0L272.69 0 256.47 0 256.47-4.81Z" opacity="1" transform="matrix(1,0,0,1,0,0)" fill="#ffffff" class="slogan-text-1" data-fill-palette-color="secondary" id="text-1"></path></svg></g></svg></g></svg></g></svg></g><g transform="matrix(1,0,0,1,43.343999999999994,0)"><svg viewBox="0 0 138.432 66.65244444444444" height="66.65244444444444" width="138.432"><g><svg xmlns:x="http://ns.adobe.com/Extensibility/1.0/" xmlns:i="http://ns.adobe.com/AdobeIllustrator/10.0/" xmlns:graph="http://ns.adobe.com/Graphs/1.0/" xmlns="http://www.w3.org/2000/svg" xmlns:xlink="http://www.w3.org/1999/xlink" version="1.1" x="0" y="0" viewBox="5 19 54 26" enable-background="new 0 0 64 64" xml:space="preserve" height="66.65244444444444" width="138.432" class="icon-icon-0" data-fill-palette-color="accent" id="icon-0"><g fill="#ffffff" data-fill-palette-color="accent"><path d="M58 27h-3v-7c0-0.552-0.447-1-1-1h-4c-0.553 0-1 0.448-1 1v9H15v-9c0-0.552-0.448-1-1-1h-4c-0.552 0-1 0.448-1 1v7H6c-0.552 0-1 0.448-1 1v8c0 0.553 0.448 1 1 1h3v7c0 0.553 0.448 1 1 1h4c0.552 0 1-0.447 1-1v-9h34v9c0 0.553 0.447 1 1 1h4c0.553 0 1-0.447 1-1v-7h3c0.553 0 1-0.447 1-1v-8C59 27.448 58.553 27 58 27z" fill="#ffffff" data-fill-palette-color="accent"></path></g></svg><g></g></g></svg></g><g></g></svg></g></svg></g></svg></g><defs></defs></svg><rect width="320" height="360" fill="none" stroke="none" visibility="hidden"></rect></g></svg></g></svg>